<svg width="30" height="10" viewBox="0 0 38 10" fill="none" xmlns="http://www.w3.org/2000/svg">
<path d="M19 0C21.5315 0 23.5834 2.05181 23.5834 4.58333C23.5834 7.11486 21.5315 9.16667 19 9.16667C16.4685 9.16667 14.4167 7.11486 14.4167 4.58333C14.4167 2.05181 16.4685 0 19 0ZM5.25002 0C7.78155 0 9.83335 2.05181 9.83335 4.58333C9.83335 7.11486 7.78155 9.16667 5.25002 9.16667C2.71849 9.16667 0.666687 7.11486 0.666687 4.58333C0.666687 2.05181 2.71849 0 5.25002 0ZM32.75 0C35.2815 0 37.3334 2.05181 37.3334 4.58333C37.3334 7.11486 35.2815 9.16667 32.75 9.16667C30.2185 9.16667 28.1667 7.11486 28.1667 4.58333C28.1667 2.05181 30.2185 0 32.75 0Z" fill="white"/>
</svg>
