<svg width="17" height="15" viewBox="0 0 17 15" fill="none" xmlns="http://www.w3.org/2000/svg">
<path fill-rule="evenodd" clip-rule="evenodd" d="M14.4637 0.600098C14.1875 0.600098 13.9637 0.823956 13.9637 1.1001V14.4998C13.9637 14.776 14.1875 14.9998 14.4637 14.9998H15.7909C16.0671 14.9998 16.2909 14.776 16.2909 14.4998V1.1001C16.2909 0.823955 16.0671 0.600098 15.7909 0.600098H14.4637ZM9.80908 3.79968C9.53294 3.79968 9.30908 4.02354 9.30908 4.29968V14.4995C9.30908 14.7756 9.53294 14.9995 9.80908 14.9995H11.1364C11.4125 14.9995 11.6364 14.7756 11.6364 14.4995V4.29968C11.6364 4.02354 11.4125 3.79968 11.1364 3.79968H9.80908ZM4.65459 7.5C4.65459 7.22386 4.87844 7 5.15459 7H6.48186C6.758 7 6.98186 7.22386 6.98186 7.5V14.4998C6.98186 14.776 6.758 14.9998 6.48186 14.9998H5.15459C4.87844 14.9998 4.65459 14.776 4.65459 14.4998V7.5ZM0.5 10.1996C0.223858 10.1996 0 10.4234 0 10.6996V14.4995C0 14.7756 0.223858 14.9995 0.5 14.9995H1.82727C2.10341 14.9995 2.32727 14.7756 2.32727 14.4995V10.6996C2.32727 10.4234 2.10341 10.1996 1.82727 10.1996H0.5Z" fill="white"/>
</svg>
