<svg width="49" height="25" viewBox="0 0 49 25" fill="none" xmlns="http://www.w3.org/2000/svg" class=".no-connection">
    <path fill-rule="evenodd" clip-rule="evenodd" d="M37 19.3135C41.4183 19.3135 45 15.7318 45 11.3135C45 6.8952 41.4183 3.31348 37 3.31348C32.5817 3.31348 29 6.8952 29 11.3135C29 15.7318 32.5817 19.3135 37 19.3135ZM33.773 8.90446L34.6408 8.03665L37.4138 10.8097L40.137 8.0865L41.0048 8.95432L38.2816 11.6775L41.0048 14.4006L40.1369 15.2684L37.4138 12.5453L34.6408 15.3183L33.773 14.4505L36.546 11.6775L33.773 8.90446Z" fill="white"/>
    <path fill-rule="evenodd" clip-rule="evenodd" d="M24.1454 0.313477H36.3636C37.4836 0.313477 38.3999 1.14425 38.3999 2.15963V6.31348H36.3636V2.15918H24.1454V22.4669H36.3636V15.3135H38.3999V22.4673C38.3999 23.4827 37.4836 24.3135 36.3636 24.3135H24.1454C23.0254 24.3135 22.109 23.4827 22.109 22.4673V2.15963C22.109 1.14425 23.0254 0.313477 24.1454 0.313477ZM31.453 19.0933C31.453 19.855 30.8535 20.4733 30.1149 20.4733C29.3762 20.4733 28.7767 19.855 28.7767 19.0933C28.7767 18.3315 29.3762 17.7133 30.1149 17.7133C30.8553 17.7133 31.453 18.3315 31.453 19.0933Z" fill="white"/>
</svg>
